<svg width="63" height="74" viewBox="0 0 63 74" fill="none" xmlns="http://www.w3.org/2000/svg">
<path d="M37.9154 5.12596V25.5149C40.7193 27.5973 42.5401 30.9323 42.5401 34.6854C42.5401 40.9264 37.5058 46.0109 31.2853 46.0985C29.8666 48.9983 27.9098 51.0989 26.1368 52.5496C22.6404 55.4103 19.1234 56.3914 18.9755 56.4318C17.8204 56.7468 16.6287 56.0657 16.3137 54.9107C15.9993 53.7578 16.6773 52.5684 17.8282 52.2508C17.9002 52.2301 20.7457 51.4018 23.5131 49.0933C24.8687 47.9625 25.9735 46.6826 26.8246 45.2598C22.6538 43.5582 19.7057 39.4608 19.7057 34.6855C19.7057 30.9326 21.5265 27.5974 24.3304 25.515V6.33821C11.9773 10.7561 4.12646 23.8465 6.80256 37.4412L1.46914 42.7746C-0.556323 44.8 -0.479149 48.1208 1.64922 50.0533C3.10599 51.3754 4.54196 52.2628 5.93977 52.7067C6.42782 56.982 8.48118 61.3082 10.2393 64.3471C11.6101 66.7165 14.2522 68.0276 16.9701 67.6872L21.2269 67.1554L22.0467 72.1764C22.2402 73.362 23.3579 74.1592 24.5355 73.9665L47.3113 73.9999C48.7116 73.9999 49.7539 72.6877 49.417 71.3189C49.3975 71.2363 47.5272 62.9047 53.1507 51.5297C54.1642 49.479 55.5317 47.1976 57.1054 44.9322C59.7432 41.1326 62.1855 36.9923 62.1953 32.4629C62.2265 18.6711 51.2663 7.25071 37.9154 5.12596Z" fill="#4979A6"/>
<path d="M38.2045 34.6855C38.2045 30.7807 35.0277 27.6039 31.1229 27.6039C27.2181 27.6039 24.0414 30.7807 24.0414 34.6855C24.0414 37.6493 25.8724 40.1923 28.4621 41.2463C28.7895 39.9167 28.9551 38.5 28.9551 36.9978C28.9551 35.8006 29.9257 34.83 31.1229 34.83C32.3201 34.83 33.2907 35.8006 33.2907 36.9978C33.2907 38.6491 33.1235 40.1647 32.8329 41.557C35.9141 40.7901 38.2045 38.0006 38.2045 34.6855Z" fill="#4979A6"/>
<path d="M28.6661 2.16806V23.5373C30.2789 23.182 31.9345 23.1748 33.5798 23.5373V2.16806C33.5798 0.97085 32.6092 0.000244141 31.412 0.000244141H30.8339C29.6367 0.000244141 28.6661 0.97085 28.6661 2.16806Z" fill="#4979A6"/>
</svg>
